<svg width="120" height="120" viewBox="0 0 120 120" fill="none" xmlns="http://www.w3.org/2000/svg">
<circle cx="60" cy="60" r="60" fill="#CAFFFC"/>
<path d="M41 46L41.4975 45.9502C41.471 45.6851 41.2412 45.4873 40.9751 45.5006C40.709 45.5139 40.5 45.7335 40.5 46H41ZM46 51.5C46.2761 51.5 46.5 51.2761 46.5 51C46.5 50.7239 46.2761 50.5 46 50.5V51.5ZM41 56L40.5025 56.0498C40.529 56.3149 40.7588 56.5127 41.0249 56.4994C41.291 56.4861 41.5 56.2665 41.5 56H41ZM36 51L35.9502 50.5025C35.6851 50.529 35.4873 50.7588 35.5006 51.0249C35.5139 51.291 35.7335 51.5 36 51.5V51ZM40.5025 46.0498C40.5928 46.9534 40.9675 48.2953 41.8121 49.4245C42.6707 50.5723 44.019 51.5 46 51.5V50.5C44.381 50.5 43.3126 49.761 42.6129 48.8255C41.8992 47.8714 41.5738 46.7132 41.4975 45.9502L40.5025 46.0498ZM46 50.5C45.0867 50.5 43.7278 50.7699 42.5828 51.5942C41.4124 52.4369 40.5 53.837 40.5 56H41.5C41.5 54.163 42.2542 53.0631 43.1672 52.4058C44.1056 51.7301 45.2467 51.5 46 51.5V50.5ZM41.4975 55.9502C41.4072 55.0466 41.0325 53.7047 40.1879 52.5755C39.3293 51.4277 37.981 50.5 36 50.5V51.5C37.619 51.5 38.6874 52.239 39.3871 53.1745C40.1008 54.1286 40.4262 55.2868 40.5025 56.0498L41.4975 55.9502ZM36.0498 51.4975C36.9534 51.4072 38.2953 51.0325 39.4245 50.1879C40.5723 49.3293 41.5 47.981 41.5 46H40.5C40.5 47.619 39.761 48.6874 38.8255 49.3871C37.8714 50.1008 36.7132 50.4262 35.9502 50.5025L36.0498 51.4975Z" fill="black"/>
<path d="M77.5 39L73 29H66M77.5 39H70M77.5 39L68.5 49.1111M60 59L70 39M60 59L50 39M60 59L52 50.1111M60 59L68.5 49.1111M42 39L47 29H54M42 39H50M42 39L52 50.1111M66 29L70 39M66 29H54M70 39H50M54 29L50 39M52 50.1111V56L56 61V65M56 65L54 81M56 65H64.5M54 81H67M54 81C52.6667 81 49.4 81 47 81C44.6 81 44 82.6667 44 83.5V87H76V83.5C76 80.7 74 80.6667 73 81H67M67 81L64.5 65M64.5 65V61L68.5 56V49.1111" stroke="black" stroke-width="2"/>
<path d="M77 49L77.4975 48.9502C77.471 48.6851 77.2412 48.4873 76.9751 48.5006C76.709 48.5139 76.5 48.7335 76.5 49H77ZM82 54.5C82.2761 54.5 82.5 54.2761 82.5 54C82.5 53.7239 82.2761 53.5 82 53.5V54.5ZM77 59L76.5025 59.0498C76.529 59.3149 76.7588 59.5127 77.0249 59.4994C77.291 59.4861 77.5 59.2665 77.5 59H77ZM72 54L71.9502 53.5025C71.6851 53.529 71.4873 53.7588 71.5006 54.0249C71.5139 54.291 71.7335 54.5 72 54.5V54ZM76.5025 49.0498C76.5928 49.9534 76.9675 51.2953 77.8121 52.4245C78.6707 53.5723 80.019 54.5 82 54.5V53.5C80.381 53.5 79.3126 52.761 78.6129 51.8255C77.8992 50.8714 77.5738 49.7132 77.4975 48.9502L76.5025 49.0498ZM82 53.5C81.0867 53.5 79.7278 53.7699 78.5828 54.5942C77.4124 55.4369 76.5 56.837 76.5 59H77.5C77.5 57.163 78.2542 56.0631 79.1672 55.4058C80.1056 54.7301 81.2467 54.5 82 54.5V53.5ZM77.4975 58.9502C77.4072 58.0466 77.0325 56.7047 76.1879 55.5755C75.3293 54.4277 73.981 53.5 72 53.5V54.5C73.619 54.5 74.6874 55.239 75.3871 56.1745C76.1008 57.1286 76.4262 58.2868 76.5025 59.0498L77.4975 58.9502ZM72.0498 54.4975C72.9534 54.4072 74.2953 54.0325 75.4245 53.1879C76.5723 52.3293 77.5 50.981 77.5 49H76.5C76.5 50.619 75.761 51.6874 74.8255 52.3871C73.8714 53.1008 72.7132 53.4262 71.9502 53.5025L72.0498 54.4975Z" fill="black"/>
</svg>
